HIERARCHY
ROOT joint_Root
{
	OFFSET 0.0 0.0 0.0
	CHANNELS 6 Xposition Yposition Zposition Zrotation Xrotation Yrotation 
	JOINT Hips
	{
		OFFSET -0.726466 93.3139 -2.00062
		CHANNELS 6 Xposition Yposition Zposition Zrotation Xrotation Yrotation 
		JOINT Spine
		{
			OFFSET 15.7357 0.0 0.0
			CHANNELS 6 Xposition Yposition Zposition Zrotation Xrotation Yrotation 
			JOINT Chest
			{
				OFFSET 8.98455 -0.406207 0.0
				CHANNELS 6 Xposition Yposition Zposition Zrotation Xrotation Yrotation 
				JOINT Neck
				{
					OFFSET 16.3773 0.0 0.0
					CHANNELS 6 Xposition Yposition Zposition Zrotation Xrotation Yrotation 
					JOINT Head
					{
						OFFSET 6.45672 0.0 0.0
						CHANNELS 6 Xposition Yposition Zposition Zrotation Xrotation Yrotation 
						End Site
						{
							OFFSET 0.0 0.0 0.0
						}
					}
				}
				JOINT Shoulder_L
				{
					OFFSET 12.9942 -0.242716 4.98039
					CHANNELS 6 Xposition Yposition Zposition Zrotation Xrotation Yrotation 
					JOINT UpperArm_L
					{
						OFFSET 5.34809 0.0 0.0
						CHANNELS 6 Xposition Yposition Zposition Zrotation Xrotation Yrotation 
						JOINT LowerArm_L
						{
							OFFSET 24.3286 1.87007e-05 0.0
							CHANNELS 6 Xposition Yposition Zposition Zrotation Xrotation Yrotation 
							JOINT Hand_L
							{
								OFFSET 22.2916 0.0 0.0
								CHANNELS 6 Xposition Yposition Zposition Zrotation Xrotation Yrotation 
								End Site
								{
									OFFSET 0.0 0.0 0.0
								}
							}
						}
					}
				}
				JOINT Shoulder_R
				{
					OFFSET 12.9945 -0.242716 -4.98039
					CHANNELS 6 Xposition Yposition Zposition Zrotation Xrotation Yrotation 
					JOINT UpperArm_R
					{
						OFFSET -5.34813 0.0 0.0
						CHANNELS 6 Xposition Yposition Zposition Zrotation Xrotation Yrotation 
						JOINT LowerArm_R
						{
							OFFSET -24.3289 0.000322201 0.0
							CHANNELS 6 Xposition Yposition Zposition Zrotation Xrotation Yrotation 
							JOINT Hand_R
							{
								OFFSET -22.2915 -0.000108084 0.0
								CHANNELS 6 Xposition Yposition Zposition Zrotation Xrotation Yrotation 
								End Site
								{
									OFFSET 0.0 0.0 0.0
								}
							}
						}
					}
				}
			}
		}
		JOINT UpperLeg_L
		{
			OFFSET -2.19248 -6.46944 0.0
			CHANNELS 6 Xposition Yposition Zposition Zrotation Xrotation Yrotation 
			JOINT LowerLeg_L
			{
				OFFSET 39.0811 0.0 -1.23785e-05
				CHANNELS 6 Xposition Yposition Zposition Zrotation Xrotation Yrotation 
				JOINT Foot_L
				{
					OFFSET 40.9854 0.0 -1.26872e-05
					CHANNELS 6 Xposition Yposition Zposition Zrotation Xrotation Yrotation 
					JOINT Toes_L
					{
						OFFSET 11.7543 0.0 0.0
						CHANNELS 6 Xposition Yposition Zposition Zrotation Xrotation Yrotation 
						End Site
						{
							OFFSET 0.0 0.0 0.0
						}
					}
				}
			}
		}
		JOINT UpperLeg_R
		{
			OFFSET -2.19251 6.46944 0.0
			CHANNELS 6 Xposition Yposition Zposition Zrotation Xrotation Yrotation 
			JOINT LowerLeg_R
			{
				OFFSET -39.0811 -0.00228153 -0.0401928
				CHANNELS 6 Xposition Yposition Zposition Zrotation Xrotation Yrotation 
				JOINT Foot_R
				{
					OFFSET -40.9854 0.0 0.0
					CHANNELS 6 Xposition Yposition Zposition Zrotation Xrotation Yrotation 
					JOINT Toes_R
					{
						OFFSET -11.7543 0.0 0.0
						CHANNELS 6 Xposition Yposition Zposition Zrotation Xrotation Yrotation 
						End Site
						{
							OFFSET 0.0 0.0 0.0
						}
					}
				}
			}
		}
	}
}
MOTION
Frames:	8
Frame Time:	0.0333333
0.000000 0.000000 0.000000 0.000000 0.000000 -0.000000 -0.685809 92.069900 -0.784945 87.724800 -0.424459 1.746140 15.735700 0.000005 -0.000001 82.372600 85.466100 -82.040300 8.984550 -0.406207 -0.000000 1.225420 -1.221980 0.677057 16.377300 -0.000001 -0.000001 0.984842 -1.940440 -0.798636 6.456720 -0.000001 -0.000000 -3.197450 -0.263992 2.239420 12.994200 -0.242716 4.980390 -89.574000 -1.275770 -71.530900 5.348090 -0.000007 -0.000001 -63.729300 46.192000 -15.286300 24.328600 0.000019 0.000005 2.775130 4.821750 -29.968900 22.291600 -0.000001 0.000005 10.139900 5.642680 -14.354300 12.994500 -0.242716 -4.980390 87.599100 6.202900 -68.791800 -5.348130 -0.000001 -0.000004 -66.502900 31.542400 -12.618000 -24.328900 0.000322 -0.000009 -0.398329 -1.058420 -20.574000 -22.291500 -0.000108 -0.000004 6.546190 5.560180 -9.195840 -2.192480 -6.469440 -0.000000 -168.799000 -16.780700 -3.767360 39.081100 -0.000007 -0.000012 -0.183242 0.479568 20.912000 40.985400 -0.000006 -0.000013 -6.527200 3.201130 -63.266300 11.754300 -0.000000 0.000003 -0.000180 -0.001694 -16.641600 -2.192510 6.469440 -0.000001 174.230000 21.024600 178.708000 -39.081100 -0.002282 -0.040193 -0.035567 0.118222 18.209600 -40.985400 0.000008 0.000006 -3.752840 3.400200 -62.903600 -11.754300 -0.000006 -0.000006 -0.004693 -0.058461 -18.951500
0.000000 0.000000 0.000000 0.000000 0.000000 -0.000000 -0.680090 92.074800 -0.880516 87.701300 -0.362929 1.874320 15.735700 0.000005 -0.000001 82.216400 85.376900 -81.950800 8.984550 -0.406207 -0.000000 1.398340 -1.266370 0.546163 16.377300 -0.000001 -0.000001 0.855094 -1.791160 -0.877328 6.456720 -0.000001 -0.000000 -3.465990 -0.102184 2.021350 12.994200 -0.242716 4.980390 -89.545500 -1.354300 -71.446000 5.348090 -0.000007 -0.000001 -61.635200 48.213100 -15.670300 24.328600 0.000019 0.000005 3.217330 5.016500 -32.732600 22.291600 -0.000001 0.000005 10.100500 5.650710 -15.084000 12.994500 -0.242716 -4.980390 87.607200 6.149770 -68.690800 -5.348130 -0.000001 -0.000004 -66.323400 29.683800 -12.522000 -24.328900 0.000322 -0.000009 -0.488895 -1.267710 -21.047200 -22.291500 -0.000108 -0.000004 6.784010 5.556420 -9.013280 -2.192480 -6.469440 -0.000000 -168.759000 -16.739900 -3.745260 39.081100 -0.000007 -0.000012 -0.184867 0.482661 20.957900 40.985400 -0.000006 -0.000013 -6.505330 3.220050 -63.215600 11.754300 -0.000000 0.000003 -0.000170 -0.001618 -16.638800 -2.192510 6.469440 -0.000001 174.241000 21.005400 178.754000 -39.081100 -0.002282 -0.040193 -0.033047 0.110283 18.252900 -40.985400 0.000008 0.000006 -3.647510 3.313210 -62.876000 -11.754300 -0.000006 -0.000006 -0.004789 -0.059413 -18.990300
0.000000 0.000000 0.000000 0.000000 0.000000 -0.000000 -0.649402 92.065200 -0.969124 87.709500 -0.406108 1.956300 15.735700 0.000005 -0.000001 82.210700 85.315600 -82.030100 8.984550 -0.406207 -0.000000 1.518870 -1.278950 0.377725 16.377300 -0.000001 -0.000001 0.735954 -1.605590 -0.986354 6.456720 -0.000001 -0.000000 -3.723770 0.070631 1.800920 12.994200 -0.242716 4.980390 -89.503100 -1.464890 -71.258700 5.348090 -0.000007 -0.000001 -58.703300 50.743600 -16.303800 24.328600 0.000019 0.000005 3.496850 4.752400 -36.411700 22.291600 -0.000001 0.000005 10.318700 5.658500 -15.889700 12.994500 -0.242716 -4.980390 87.661600 5.953710 -68.510800 -5.348130 -0.000001 -0.000004 -65.848300 27.410100 -12.697800 -24.328900 0.000322 -0.000009 -0.627265 -1.598730 -21.392500 -22.291500 -0.000108 -0.000004 7.286810 5.555850 -8.984800 -2.192480 -6.469440 -0.000000 -168.774000 -16.719200 -3.776290 39.081100 -0.000007 -0.000012 -0.186629 0.483913 21.090300 40.985400 -0.000006 -0.000013 -6.479290 3.192040 -63.241300 11.754300 -0.000000 0.000003 -0.000175 -0.001656 -16.640200 -2.192510 6.469440 -0.000001 174.195000 20.894300 178.733000 -39.081100 -0.002282 -0.040193 -0.037574 0.123478 18.325700 -40.985400 0.000008 0.000006 -3.838280 3.287140 -62.833500 -11.754300 -0.000006 -0.000006 -0.004881 -0.060314 -19.027000
0.000000 0.000000 0.000000 0.000000 0.000000 -0.000000 -0.626540 92.067700 -1.053570 87.704200 -0.333887 2.102030 15.735700 0.000005 -0.000001 81.936100 85.221900 -81.856600 8.984550 -0.406207 -0.000000 1.697030 -1.343960 0.178779 16.377300 -0.000001 -0.000001 0.697411 -1.458470 -1.060980 6.456720 -0.000001 -0.000000 -4.116860 0.243839 1.602510 12.994200 -0.242716 4.980390 -89.423000 -1.683340 -71.076400 5.348090 -0.000007 -0.000001 -55.528000 52.973100 -16.862900 24.328600 0.000019 0.000005 4.105150 4.753200 -40.893800 22.291600 -0.000001 0.000005 10.629300 5.666980 -16.941700 12.994500 -0.242716 -4.980390 87.708100 5.768970 -68.289700 -5.348130 -0.000001 -0.000004 -64.794100 24.781500 -13.216200 -24.328900 0.000322 -0.000009 -0.685164 -1.733440 -21.540700 -22.291500 -0.000108 -0.000004 7.701620 5.553300 -8.864350 -2.192480 -6.469440 -0.000000 -168.776000 -16.544900 -3.741390 39.081100 -0.000007 -0.000012 -0.188458 0.487205 21.147400 40.985400 -0.000006 -0.000013 -6.463610 3.104140 -63.221000 11.754300 -0.000000 0.000003 -0.000158 -0.001521 -16.635300 -2.192510 6.469440 -0.000001 174.148000 20.898900 178.837000 -39.081100 -0.002282 -0.040193 -0.036928 0.121516 18.327400 -40.985400 0.000008 0.000006 -3.872810 3.228410 -62.781000 -11.754300 -0.000006 -0.000006 -0.004628 -0.057821 -18.925500
0.000000 0.000000 0.000000 0.000000 0.000000 -0.000000 -0.581493 92.065900 -1.135750 87.693400 -0.349441 2.202030 15.735700 0.000005 -0.000001 81.746500 85.130100 -81.778900 8.984550 -0.406207 -0.000000 1.873080 -1.395650 -0.041886 16.377300 -0.000001 -0.000001 0.632597 -1.324640 -1.143680 6.456720 -0.000001 -0.000000 -4.580870 0.468253 1.402750 12.994200 -0.242716 4.980390 -89.297200 -2.023640 -70.842800 5.348090 -0.000007 -0.000001 -52.013600 55.104600 -17.530400 24.328600 0.000019 0.000005 4.220700 4.114840 -45.811000 22.291600 -0.000001 0.000005 11.040200 5.673320 -17.914600 12.994500 -0.242716 -4.980390 87.795000 5.506550 -68.136700 -5.348130 -0.000001 -0.000004 -63.161700 22.114500 -14.196000 -24.328900 0.000322 -0.000009 -0.795240 -2.037540 -21.300500 -22.291500 -0.000108 -0.000004 8.116810 5.548590 -8.641400 -2.192480 -6.469440 -0.000000 -168.799000 -16.521000 -3.768320 39.081100 -0.000007 -0.000012 -0.186587 0.479092 21.279100 40.985400 -0.000006 -0.000013 -6.416070 3.047020 -63.240500 11.754300 -0.000000 0.000003 -0.000150 -0.001453 -16.632800 -2.192510 6.469440 -0.000001 174.139000 20.853900 178.824000 -39.081100 -0.002282 -0.040193 -0.034140 0.112423 18.430600 -40.985400 0.000008 0.000006 -3.736160 3.181680 -62.782500 -11.754300 -0.000006 -0.000006 -0.004967 -0.061148 -19.061000
0.000000 0.000000 0.000000 0.000000 0.000000 -0.000000 -0.522486 92.071700 -1.216330 87.710700 -0.440442 2.332640 15.735700 0.000005 -0.000001 82.070200 85.045200 -82.244400 8.984550 -0.406207 -0.000000 2.047310 -1.357510 -0.323710 16.377300 -0.000001 -0.000001 0.581902 -1.133340 -1.287020 6.456720 -0.000001 -0.000000 -5.006130 0.546535 1.331680 12.994200 -0.242716 4.980390 -89.096000 -2.561620 -70.553900 5.348090 -0.000007 -0.000001 -47.563300 57.699300 -18.999400 24.328600 0.000019 0.000005 4.231510 3.448490 -50.886100 22.291600 -0.000001 0.000005 11.743600 5.678850 -19.186600 12.994500 -0.242716 -4.980390 87.932700 5.133190 -68.028900 -5.348130 -0.000001 -0.000004 -61.087000 19.324500 -15.393400 -24.328900 0.000322 -0.000009 -0.773221 -2.032460 -20.807100 -22.291500 -0.000108 -0.000004 8.387060 5.540220 -8.253640 -2.192480 -6.469440 -0.000000 -168.821000 -16.522600 -3.663350 39.081100 -0.000007 -0.000012 -0.188543 0.483835 21.290400 40.985400 -0.000006 -0.000013 -6.382760 2.989490 -63.228900 11.754300 -0.000000 0.000003 -0.000153 -0.001476 -16.633600 -2.192510 6.469440 -0.000001 174.076000 20.746100 178.861000 -39.081100 -0.002282 -0.040193 -0.030006 0.099780 18.471200 -40.985400 0.000008 0.000006 -3.624340 3.176150 -62.738800 -11.754300 -0.000006 -0.000006 -0.004934 -0.060823 -19.047800
0.000000 0.000000 0.000000 0.000000 0.000000 -0.000000 -0.462186 92.062600 -1.267560 87.676900 -0.552830 2.463480 15.735700 0.000005 -0.000001 82.648000 84.965900 -82.961100 8.984550 -0.406207 -0.000000 2.216440 -1.272270 -0.601114 16.377300 -0.000001 -0.000001 0.510911 -0.949074 -1.390200 6.456720 -0.000001 -0.000000 -5.401640 0.585931 1.119200 12.994200 -0.242716 4.980390 -88.906100 -3.059000 -70.312400 5.348090 -0.000007 -0.000001 -42.156200 60.144000 -20.835700 24.328600 0.000019 0.000005 5.551610 3.634280 -56.878600 22.291600 -0.000001 0.000005 12.240300 5.681570 -20.334000 12.994500 -0.242716 -4.980390 88.152600 4.557640 -67.907000 -5.348130 -0.000001 -0.000004 -59.017800 15.812900 -16.690300 -24.328900 0.000322 -0.000009 -0.640867 -1.748510 -20.101200 -22.291500 -0.000108 -0.000004 8.338680 5.530990 -7.839800 -2.192480 -6.469440 -0.000000 -168.806000 -16.546800 -3.640040 39.081100 -0.000007 -0.000012 -0.188240 0.478394 21.479100 40.985400 -0.000006 -0.000013 -6.333780 2.928380 -63.310700 11.754300 -0.000000 0.000003 -0.000158 -0.001520 -16.635300 -2.192510 6.469440 -0.000001 174.030000 20.709000 178.909000 -39.081100 -0.002282 -0.040193 -0.031531 0.103967 18.533800 -40.985400 0.000008 0.000006 -3.585760 3.273640 -62.707700 -11.754300 -0.000006 -0.000006 -0.004691 -0.058442 -18.950800
0.000000 0.000000 0.000000 0.000000 0.000000 -0.000000 -0.391200 92.072700 -1.329780 87.677800 -0.672596 2.571020 15.735700 0.000005 -0.000001 83.217900 84.914700 -83.700300 8.984550 -0.406207 -0.000000 2.329000 -1.177270 -0.939947 16.377300 -0.000001 -0.000001 0.480357 -0.765017 -1.591960 6.456720 -0.000001 -0.000000 -5.809740 0.621385 1.025580 12.994200 -0.242716 4.980390 -88.671800 -3.658710 -70.032000 5.348090 -0.000007 -0.000001 -35.996700 62.568900 -23.230300 24.328600 0.000019 0.000005 7.756120 3.966490 -63.062000 22.291600 -0.000001 0.000005 13.284800 5.682080 -21.452200 12.994500 -0.242716 -4.980390 88.382100 3.976200 -67.836800 -5.348130 -0.000001 -0.000004 -56.866500 11.579200 -17.865100 -24.328900 0.000322 -0.000009 -0.674856 -1.910670 -19.430000 -22.291500 -0.000108 -0.000004 8.636260 5.526650 -7.650420 -2.192480 -6.469440 -0.000000 -168.827000 -16.592100 -3.534340 39.081100 -0.000007 -0.000012 -0.188018 0.477806 21.480100 40.985400 -0.000006 -0.000013 -6.289430 2.871240 -63.308500 11.754300 -0.000000 0.000003 -0.000159 -0.001528 -16.635600 -2.192510 6.469440 -0.000001 173.982000 20.693600 178.960000 -39.081100 -0.002282 -0.040193 -0.025721 0.086672 18.526400 -40.985400 0.000008 0.000006 -3.420490 3.343040 -62.646700 -11.754300 -0.000006 -0.000006 -0.004759 -0.059118 -18.978300
